<svg id="ic-bell" xmlns="http://www.w3.org/2000/svg" width="17.079" height="17.079" viewBox="0 0 17.079 17.079">
  <path id="Trazado_401" data-name="Trazado 401" d="M0,0H17.079V17.079H0Z" fill="none"/>
  <path id="Trazado_402" data-name="Trazado 402" d="M8.27,4.423a1.423,1.423,0,0,1,2.847,0,4.981,4.981,0,0,1,2.847,4.27v2.135a2.847,2.847,0,0,0,1.423,2.135H4a2.847,2.847,0,0,0,1.423-2.135V8.693A4.981,4.981,0,0,1,8.27,4.423" transform="translate(-1.153 -0.865)" fill="none" stroke="#fff" stroke-linecap="round" stroke-linejoin="round" stroke-width="2"/>
  <path id="Trazado_403" data-name="Trazado 403" d="M9,17v.712a2.135,2.135,0,1,0,4.27,0V17" transform="translate(-2.595 -4.902)" fill="none" stroke="#fff" stroke-linecap="round" stroke-linejoin="round" stroke-width="2"/>
</svg>
